# xmcd
#
# Track frame offsets:
#	150
#	8705
#	18009
#	27762
#	40365
#	56140
#	68698
#	84224
#	94653
#	112852
#	126249
#	140026
#	158090
#	169810
#
# Disc length: 2484 seconds
#
# Revision: 1
# Processed by: cddbd v1.5.2PL0 Copyright (c) Steve Scherf et al.
# Submitted via: audiograbber 1.83.01
#
DISCID=a709b20e
DTITLE=Dieter Kropp - Eine schoene Bescherung
DYEAR=2012
DGENRE=Blues
TTITLE0=Suesser die Glocken nie klingen
TTITLE1=Ein kleiner weisser Schneemann
TTITLE2=Weisser Winterwald
TTITLE3=Schoene Bescherung
TTITLE4=Frohe Weihnacht Baby
TTITLE5=Schneefloeckchen Weissroeckchen
TTITLE6=Morgen Kinder wird's was geben
TTITLE7=Oh Tannenbaum Oh Tannenbaum
TTITLE8=Weisse Weihnacht
TTITLE9=Leider nur ein Traum
TTITLE10=Der Weihnachtsumtausch
TTITLE11=Sonderangebote
TTITLE12=Rockin' Around The Christmas Tree
TTITLE13=Stille Nacht heilige Nacht (instrumental)
EXTD=
EXTT0=
EXTT1=
EXTT2=
EXTT3=
EXTT4=
EXTT5=
EXTT6=
EXTT7=
EXTT8=
EXTT9=
EXTT10=
EXTT11=
EXTT12=
EXTT13=
PLAYORDER=
